<?xml version="1.0" standalone="no"?>
<!DOCTYPE svg PUBLIC "-//W3C//DTD SVG 20010904//EN"
 "http://www.w3.org/TR/2001/REC-SVG-20010904/DTD/svg10.dtd">
<svg version="1.0" xmlns="http://www.w3.org/2000/svg"
 width="260.000000pt" height="260.000000pt" viewBox="0 0 260.000000 260.000000"
 preserveAspectRatio="xMidYMid meet">
<metadata>
Created by potrace 1.11, written by Peter Selinger 2001-2013
</metadata>
<g transform="translate(0.000000,260.000000) scale(0.100000,-0.100000)"
fill="#000000" stroke="none">
<path d="M487 2253 c-8 -12 -17 -109 -32 -348 -2 -38 -7 -101 -10 -140 -5 -68
-7 -98 -20 -275 -3 -47 -8 -110 -10 -140 -8 -93 -15 -201 -20 -280 -4 -78 -13
-192 -20 -270 -2 -25 -7 -95 -10 -156 l-7 -110 61 -101 c34 -55 69 -103 78
-105 10 -2 245 -3 523 -2 622 2 750 14 880 86 77 43 142 124 227 285 87 164
105 222 108 328 4 177 -64 317 -207 420 -31 23 -35 1 31 225 18 62 31 128 31
161 0 191 -131 341 -355 406 -53 15 -127 17 -652 21 -325 2 -593 -1 -596 -5z
m909 -1260 c-10 -11 -306 -13 -306 -3 0 5 71 9 157 9 86 1 153 -2 149 -6z"/>
</g>
</svg>
